# Blender v2.79 (sub 0) OBJ File: ''
# www.blender.org
mtllib fence.mtl
o wooden_fence_large_2poles
v 0.506847 0.158981 0.017434
v 0.258127 0.163854 -0.003550
v 0.257664 0.121749 -0.003563
v 0.506384 0.116876 0.017421
v -0.490971 0.169966 -0.014124
v -0.491434 0.127861 -0.014137
v 0.507432 0.158980 -0.001068
v 0.506969 0.116875 -0.001081
v 0.258249 0.121748 -0.022065
v 0.258712 0.163853 -0.022052
v -0.490849 0.127860 -0.032639
v -0.490386 0.169965 -0.032626
v -0.489915 0.265976 -0.014095
v -0.140990 0.256234 0.007731
v -0.140500 0.300828 0.007745
v -0.489424 0.310570 -0.014082
v 0.507903 0.254991 0.017463
v 0.508394 0.299586 0.017477
v -0.489330 0.265975 -0.032597
v -0.488839 0.310570 -0.032583
v -0.139915 0.300828 -0.010757
v -0.140405 0.256233 -0.010771
v 0.508979 0.299585 -0.001025
v 0.508488 0.254990 -0.001039
v -0.408333 0.153801 -0.037680
v -0.400344 0.153706 -0.015867
v -0.406323 0.050846 -0.019195
v -0.414311 0.050941 -0.041008
v -0.428981 0.154031 -0.047263
v -0.434959 0.051171 -0.050592
v -0.450193 0.154262 -0.039004
v -0.456172 0.051402 -0.042332
v -0.459544 0.154358 -0.017739
v -0.465522 0.051498 -0.021068
v -0.451555 0.154264 0.004074
v -0.457534 0.051404 0.000746
v -0.430907 0.154034 0.013658
v -0.436886 0.051174 0.010329
v -0.409695 0.153803 0.005398
v -0.415673 0.050943 0.002070
v -0.410793 0.370750 -0.040911
v -0.402805 0.370655 -0.019098
v -0.431441 0.370980 -0.050495
v -0.452654 0.371211 -0.042235
v -0.462005 0.371307 -0.020970
v -0.454016 0.371213 0.000843
v -0.433368 0.370983 0.010427
v -0.412156 0.370752 0.002167
v 0.424500 0.198034 -0.017789
v 0.415150 0.198131 0.003475
v 0.421686 0.348938 0.005840
v 0.431038 0.348842 -0.015425
v 0.445713 0.197803 -0.026049
v 0.452250 0.348611 -0.023685
v 0.466361 0.197573 -0.016465
v 0.472898 0.348381 -0.014101
v 0.474349 0.197479 0.005348
v 0.480886 0.348286 0.007712
v 0.464998 0.197575 0.026612
v 0.471535 0.348383 0.028977
v 0.443786 0.197806 0.034872
v 0.450323 0.348614 0.037237
v 0.423138 0.198036 0.025289
v 0.429675 0.348844 0.027653
v 0.427688 0.044367 -0.015517
v 0.418337 0.044464 0.005747
v 0.448901 0.044136 -0.023777
v 0.469549 0.043906 -0.014194
v 0.477537 0.043812 0.007620
v 0.468186 0.043908 0.028884
v 0.446974 0.044139 0.037144
v 0.426326 0.044369 0.027560
vt 3.387600 0.223100
vt 1.945500 0.235100
vt 1.945500 -0.001600
vt 3.387600 -0.013600
vt -2.387600 0.223100
vt -2.387600 -0.013600
vt -2.387600 0.223100
vt -2.387600 -0.013600
vt -0.945500 -0.001600
vt -0.945500 0.235100
vt 3.387600 -0.013600
vt 3.387600 0.223100
vt 3.387600 0.441400
vt 3.387600 0.545500
vt 1.945500 0.619200
vt 1.945500 0.515100
vt -2.387600 0.545500
vt -2.387600 0.441400
vt 0.558600 0.223100
vt 0.454500 0.223100
vt 0.454500 -0.013600
vt 0.558600 -0.013600
vt 3.387600 0.441400
vt 3.387600 0.545500
vt -0.945500 0.619200
vt -0.945500 0.515100
vt -2.387600 0.545500
vt -2.387600 0.441400
vt 0.441400 -0.013600
vt 0.545500 -0.013600
vt 0.545500 0.223100
vt 0.441400 0.223100
vt -2.387600 0.762900
vt -0.365700 0.729700
vt -0.365700 0.980400
vt -2.387600 1.013600
vt 3.387600 0.762900
vt 3.387600 1.013600
vt 3.387600 0.762900
vt 3.387600 1.013600
vt 1.365700 0.980400
vt 1.365700 0.729700
vt -2.387600 1.013600
vt -2.387600 0.762900
vt 3.387600 0.441400
vt 3.387600 0.545500
vt 1.365700 0.484900
vt 1.365700 0.380800
vt -2.387600 0.545500
vt -2.387600 0.441400
vt 0.441400 0.762900
vt 0.545500 0.762900
vt 0.545500 1.013600
vt 0.441400 1.013600
vt 3.387600 0.441400
vt 3.387600 0.545500
vt -0.365700 0.484900
vt -0.365700 0.380800
vt -2.387600 0.545500
vt -2.387600 0.441400
vt 0.558600 1.013600
vt 0.454500 1.013600
vt 0.454500 0.762900
vt 0.558600 0.762900
vt 0.500000 -0.001500
vt 0.169900 0.137800
vt 0.033200 0.474200
vt 0.169900 0.810600
vt 0.500000 0.949900
vt 0.830100 0.810600
vt 0.966800 0.474200
vt 0.830100 0.137800
vt 0.386300 0.056700
vt 0.730500 0.105400
vt 0.939600 0.385300
vt 0.891300 0.732400
vt 0.613700 0.943300
vt 0.269500 0.894600
vt 0.060400 0.614700
vt 0.108700 0.267600
vt 0.527500 0.016400
vt 0.819400 0.144800
vt 0.940300 0.454600
vt 0.819400 0.764400
vt 0.527500 0.892700
vt 0.235600 0.764400
vt 0.114700 0.454600
vt 0.235600 0.144800
vt 0.192900 0.830100
vt 0.500000 0.966800
vt 0.807100 0.830100
vt 0.934300 0.500000
vt 0.807100 0.169900
vt 0.500000 0.033200
vt 0.192900 0.169900
vt 0.065700 0.500000
vt 0.849200 0.364200
vt 0.729800 0.364200
vt 0.743800 0.148100
vt 0.880900 0.148100
vt 0.984600 0.364200
vt 1.013800 0.148100
vt 0.132300 0.364200
vt -0.015400 0.364200
vt 0.013800 0.148100
vt 0.137900 0.148100
vt 0.273900 0.364200
vt 0.255200 0.148100
vt 0.398900 0.364200
vt 0.370000 0.148100
vt 0.511700 0.364200
vt 0.487200 0.148100
vt 0.619600 0.364200
vt 0.611200 0.148100
vt 0.880900 0.819700
vt 0.743800 0.819700
vt 1.013800 0.819700
vt 1.137900 0.819700
vt 1.132300 0.364200
vt 0.255200 0.819700
vt 0.137900 0.819700
vt 0.370000 0.819700
vt 0.487200 0.819700
vt 0.611200 0.819700
vt 0.870000 0.497100
vt 0.755200 0.497100
vt 0.743800 0.180300
vt 0.880900 0.180300
vt 0.987200 0.497100
vt 1.013800 0.180300
vt 0.111200 0.497100
vt -0.012800 0.497100
vt 0.013800 0.180300
vt 0.137900 0.180300
vt 0.243800 0.497100
vt 0.255200 0.180300
vt 0.380900 0.497100
vt 0.370000 0.180300
vt 0.513800 0.497100
vt 0.487200 0.180300
vt 0.637900 0.497100
vt 0.611200 0.180300
vt 0.880900 0.819700
vt 0.743800 0.819700
vt 1.013800 0.819700
vt 1.137900 0.819700
vt 1.111200 0.497100
vt 0.255200 0.819700
vt 0.137900 0.819700
vt 0.370000 0.819700
vt 0.487200 0.819700
vt 0.611200 0.819700
vn -0.0841 0.0006 0.9965
vn -0.0491 0.0002 0.9988
vn -0.0492 0.0002 0.9988
vn -0.0141 -0.0001 0.9999
vn 0.0841 -0.0006 -0.9965
vn 0.0492 -0.0002 -0.9988
vn 0.0491 -0.0002 -0.9988
vn 0.0141 0.0001 -0.9999
vn 0.0195 0.9998 0.0006
vn 0.0138 0.9999 0.0004
vn 0.0139 0.9999 0.0004
vn 0.0082 1.0000 0.0002
vn -0.9994 0.0110 -0.0316
vn -0.0082 -1.0000 -0.0002
vn -0.0138 -0.9999 -0.0004
vn -0.0139 -0.9999 -0.0004
vn -0.0195 -0.9998 -0.0006
vn 0.9994 -0.0110 0.0316
vn -0.0624 0.0004 0.9980
vn -0.0387 0.0001 0.9993
vn -0.0388 0.0001 0.9992
vn -0.0150 -0.0001 0.9999
vn 0.0624 -0.0004 -0.9980
vn 0.0388 -0.0001 -0.9992
vn 0.0387 -0.0001 -0.9993
vn 0.0150 0.0001 -0.9999
vn -0.0279 -0.9996 -0.0008
vn -0.0149 -0.9999 -0.0004
vn -0.0148 -0.9999 -0.0004
vn -0.0019 -1.0000 -0.0000
vn 0.0019 1.0000 0.0000
vn 0.0149 0.9999 0.0004
vn 0.0148 0.9999 0.0004
vn 0.0279 0.9996 0.0008
vn -0.0110 -0.9999 -0.0003
vn 0.0110 0.9999 0.0003
vn 0.9388 -0.0191 -0.3439
vn 0.9990 -0.0236 0.0369
vn 0.9980 -0.0588 0.0242
vn 0.9381 -0.0434 -0.3437
vn 0.4210 -0.0019 -0.9071
vn 0.4210 -0.0020 -0.9071
vn 0.4210 0.0049 -0.9070
vn -0.6899 0.0226 -0.7236
vn -0.3626 0.0164 -0.9318
vn -0.3619 0.0512 -0.9308
vn -0.6920 0.0635 -0.7191
vn -0.9994 0.0236 -0.0262
vn -0.9975 0.0592 -0.0387
vn -0.9388 0.0187 0.3439
vn -0.9381 0.0434 0.3437
vn -0.4210 0.0020 0.9071
vn -0.4210 0.0019 0.9071
vn -0.4210 -0.0049 0.9070
vn 0.6930 -0.0223 0.7206
vn 0.3626 -0.0168 0.9318
vn 0.3619 -0.0512 0.9308
vn 0.6879 -0.0634 0.7230
vn 0.9390 0.0055 -0.3439
vn 0.9995 0.0118 0.0281
vn 0.4209 -0.0087 -0.9071
vn -0.6927 -0.0186 -0.7210
vn -0.3630 -0.0180 -0.9316
vn -0.9993 -0.0119 -0.0350
vn -0.9390 -0.0055 0.3439
vn -0.4209 0.0087 0.9071
vn 0.6907 0.0186 0.7229
vn 0.3630 0.0180 0.9316
vn -0.6939 0.0081 -0.7200
vn -0.9993 0.0113 -0.0349
vn -0.9986 0.0437 -0.0281
vn -0.6887 0.0412 -0.7239
vn 0.0236 0.0002 -0.9997
vn 0.0400 0.0139 -0.9991
vn 0.7305 -0.0079 -0.6829
vn 0.7411 -0.0216 -0.6710
vn 0.9995 -0.0113 0.0282
vn 0.9984 -0.0438 0.0349
vn 0.6894 -0.0081 0.7243
vn 0.6931 -0.0413 0.7196
vn -0.0398 0.0000 0.9992
vn -0.0236 -0.0146 0.9996
vn -0.7413 0.0081 0.6711
vn -0.7302 0.0209 0.6829
vn -0.6895 -0.0250 -0.7239
vn -0.9994 -0.0211 -0.0282
vn 0.0395 -0.0140 -0.9991
vn 0.7414 0.0055 -0.6711
vn 0.9992 0.0212 0.0349
vn 0.6939 0.0250 0.7197
vn -0.0235 0.0143 0.9996
vn -0.7306 -0.0051 0.6828
usemtl planks
s 1
f 1/1/1 2/2/2 3/3/3 4/4/1
f 2/2/2 5/5/4 6/6/4 3/3/3
f 7/7/5 8/8/5 9/9/6 10/10/7
f 10/10/7 9/9/6 11/11/8 12/12/8
f 1/13/9 7/14/9 10/15/10 2/16/11
f 2/16/11 10/15/10 12/17/12 5/18/12
f 5/19/13 12/20/13 11/21/13 6/22/13
f 6/23/14 11/24/14 9/25/15 3/26/16
f 3/26/16 9/25/15 8/27/17 4/28/17
f 4/29/18 8/30/18 7/31/18 1/32/18
f 13/33/19 14/34/20 15/35/21 16/36/19
f 14/34/20 17/37/22 18/38/22 15/35/21
f 19/39/23 20/40/23 21/41/24 22/42/25
f 22/42/25 21/41/24 23/43/26 24/44/26
f 13/45/27 19/46/27 22/47/28 14/48/29
f 14/48/29 22/47/28 24/49/30 17/50/30
f 17/51/18 24/52/18 23/53/18 18/54/18
f 18/55/31 23/56/31 21/57/32 15/58/33
f 15/58/33 21/57/32 20/59/34 16/60/34
f 16/61/13 20/62/13 19/63/13 13/64/13
usemtl logends
f 38/65/35 36/66/35 34/67/35 32/68/35 30/69/35 28/70/35 27/71/35 40/72/35
f 41/73/36 43/74/36 44/75/36 45/76/36 46/77/36 47/78/36 48/79/36 42/80/36
f 62/81/36 60/82/36 58/83/36 56/84/36 54/85/36 52/86/36 51/87/36 64/88/36
f 65/89/35 67/90/35 68/91/35 69/92/35 70/93/35 71/94/35 72/95/35 66/96/35
usemtl log
f 25/97/37 26/98/38 27/99/39 28/100/40
f 29/101/41 25/97/42 28/100/43 30/102/43
f 31/103/44 29/104/45 30/105/46 32/106/47
f 33/107/48 31/103/44 32/106/47 34/108/49
f 35/109/50 33/107/48 34/108/49 36/110/51
f 37/111/52 35/109/53 36/110/54 38/112/54
f 39/113/55 37/111/56 38/112/57 40/114/58
f 26/98/38 39/113/55 40/114/58 27/99/39
f 41/115/59 42/116/60 26/98/38 25/97/37
f 43/117/61 41/115/61 25/97/42 29/101/41
f 44/118/62 43/117/63 29/101/45 31/119/44
f 45/120/64 44/121/62 31/103/44 33/107/48
f 46/122/65 45/120/64 33/107/48 35/109/50
f 47/123/66 46/122/66 35/109/53 37/111/52
f 48/124/67 47/123/68 37/111/56 39/113/55
f 42/116/60 48/124/67 39/113/55 26/98/38
f 49/125/69 50/126/70 51/127/71 52/128/72
f 53/129/73 49/125/69 52/128/72 54/130/74
f 55/131/75 53/132/73 54/133/74 56/134/76
f 57/135/77 55/131/75 56/134/76 58/136/78
f 59/137/79 57/135/77 58/136/78 60/138/80
f 61/139/81 59/137/79 60/138/80 62/140/82
f 63/141/83 61/139/81 62/140/82 64/142/84
f 50/126/70 63/141/83 64/142/84 51/127/71
f 65/143/85 66/144/86 50/126/70 49/125/69
f 67/145/87 65/143/85 49/125/69 53/129/73
f 68/146/88 67/145/87 53/129/73 55/147/75
f 69/148/89 68/149/88 55/131/75 57/135/77
f 70/150/90 69/148/89 57/135/77 59/137/79
f 71/151/91 70/150/90 59/137/79 61/139/81
f 72/152/92 71/151/91 61/139/81 63/141/83
f 66/144/86 72/152/92 63/141/83 50/126/70
