# Blender v2.79 (sub 0) OBJ File: ''
# www.blender.org
mtllib flat_fence.mtl
o Plane
v -0.467252 0.091741 0.000000
v 0.467252 0.091741 0.000000
v 0.467252 0.684282 0.000000
v -0.467252 0.684282 0.000000
vt 0.058428 0.138582
vt 0.985227 0.137395
vt 0.985227 0.901392
vt 0.057448 0.903900
vn 0.0000 -0.0000 1.0000
usemtl FenceFlatRender
s off
f 1/1/1 2/2/1 3/3/1 4/4/1
o F_M1_Post_02.001
v -0.522045 0.000249 -0.027731
v -0.522006 0.746110 -0.027692
v -0.466621 0.746110 -0.027692
v -0.466582 0.000249 -0.027731
v -0.522045 0.000249 0.027731
v -0.522006 0.746110 0.027693
v -0.466582 0.000249 0.027731
v -0.466621 0.746110 0.027693
v -0.513199 0.757812 -0.018886
v -0.513199 0.757812 0.018886
v -0.475428 0.757812 0.018886
v -0.475428 0.757812 -0.018886
v -0.518809 0.752062 -0.024495
v -0.469817 0.752062 -0.024495
v -0.518809 0.752062 0.024496
v -0.469817 0.752062 0.024496
vt 0.354609 0.259421
vt 0.352271 0.990305
vt 0.298131 0.990132
vt 0.300470 0.259248
vt 0.409266 0.259596
vt 0.406928 0.990480
vt 0.352788 0.990307
vt 0.355127 0.259423
vt 0.463923 0.259771
vt 0.461585 0.990655
vt 0.407445 0.990482
vt 0.409783 0.259598
vt 0.299952 0.259247
vt 0.297614 0.990131
vt 0.243474 0.989957
vt 0.245813 0.259073
vt 0.314932 0.152459
vt 0.314785 0.115934
vt 0.351310 0.115787
vt 0.351457 0.152312
vt 0.311445 0.183352
vt 0.311446 0.237529
vt 0.365622 0.237529
vt 0.365622 0.183353
vt 0.306393 0.167146
vt 0.309383 0.160848
vt 0.357049 0.160662
vt 0.360088 0.166935
vt 0.300099 0.107397
vt 0.306396 0.110386
vt 0.306583 0.158050
vt 0.300312 0.161089
vt 0.359848 0.101101
vt 0.356859 0.107399
vt 0.309193 0.107585
vt 0.306153 0.101312
vt 0.359846 0.157860
vt 0.352131 0.152483
vt 0.351987 0.115633
vt 0.359658 0.110196
vt 0.314761 0.153133
vt 0.351612 0.152990
vt 0.314111 0.115763
vt 0.314255 0.152614
vt 0.351481 0.115113
vt 0.314630 0.115257
vt 0.365930 0.107158
vt 0.366143 0.160850
vn 0.0000 0.0001 -1.0000
vn -1.0000 0.0001 0.0000
vn 0.0000 0.0001 1.0000
vn 1.0000 0.0001 0.0000
vn 0.0000 1.0000 0.0000
vn 0.0000 -1.0000 -0.0000
vn 0.0000 0.4732 -0.8810
vn -0.0001 0.5886 -0.8084
vn 0.0001 0.5886 -0.8084
vn -0.8810 0.4732 0.0000
vn -0.8084 0.5887 0.0001
vn -0.8084 0.5887 -0.0001
vn 0.0000 0.4732 0.8810
vn 0.0001 0.5886 0.8084
vn -0.0001 0.5886 0.8084
vn 0.8084 0.5886 -0.0001
vn 0.7157 0.6984 0.0000
vn 0.8084 0.5887 0.0001
vn 0.0000 0.6983 -0.7158
vn -0.7158 0.6983 0.0000
vn 0.0000 0.6983 0.7158
vn 0.8810 0.4731 0.0000
usemtl F_M1_Post.001
s 1
f 5/5/2 6/6/2 7/7/2 8/8/2
f 9/9/3 10/10/3 6/11/3 5/12/3
f 11/13/4 12/14/4 10/15/4 9/16/4
f 8/17/5 7/18/5 12/19/5 11/20/5
f 13/21/6 14/22/6 15/23/6 16/24/6
f 9/25/7 5/26/7 8/27/7 11/28/7
f 6/29/8 17/30/9 18/31/10 7/32/8
f 10/33/11 19/34/12 17/35/13 6/36/11
f 12/37/14 20/38/15 19/39/16 10/40/14
f 18/41/17 16/42/18 15/43/18 20/44/19
f 17/30/9 13/45/20 16/46/20 18/31/10
f 19/34/12 14/47/21 13/48/21 17/35/13
f 20/38/15 15/49/22 14/50/22 19/39/16
f 20/44/19 12/51/23 7/52/23 18/41/17
o F_M1_Top_Support.001
v 0.466075 0.550273 0.012808
v 0.466075 0.680847 0.012808
v 0.466022 0.680847 -0.012758
v 0.466075 0.550273 -0.012808
v -0.466075 0.550273 0.012808
v -0.466075 0.680847 0.012808
v -0.466075 0.550273 -0.012808
v -0.466075 0.680847 -0.012808
v 0.466084 0.494562 -0.012808
v -0.466084 0.494562 -0.012808
v -0.466084 0.494562 0.012808
v 0.466084 0.494562 0.012808
v 0.466084 0.736558 -0.012808
v -0.466084 0.736558 -0.012808
v -0.466084 0.736558 0.012808
v 0.466084 0.736558 0.012808
v 0.466084 0.094883 -0.012808
v 0.466084 0.039421 -0.012808
v -0.466084 0.039421 -0.012808
v -0.466084 0.094883 -0.012808
v -0.466084 0.094883 0.012808
v -0.466084 0.039421 0.012808
v 0.466084 0.039421 0.012808
v 0.466084 0.094883 0.012808
vt 0.116944 0.003432
vt 0.175777 0.003288
vt 0.177890 0.996308
vt 0.119057 0.996415
vt 0.091157 0.996473
vt 0.032325 0.996611
vt 0.030212 0.003608
vt 0.089044 0.003494
vt 0.089479 0.003494
vt 0.116509 0.003434
vt 0.118622 0.996415
vt 0.091592 0.996471
vt 0.002747 0.003649
vt 0.029778 0.003608
vt 0.031891 0.996612
vt 0.004860 0.996687
vt 0.479297 0.003432
vt 0.538130 0.003288
vt 0.540244 0.996308
vt 0.481411 0.996415
vt 0.453511 0.996473
vt 0.394678 0.996611
vt 0.392565 0.003607
vt 0.451397 0.003494
vt 0.451832 0.003494
vt 0.478863 0.003434
vt 0.480976 0.996415
vt 0.453946 0.996471
vt 0.365100 0.003648
vt 0.392131 0.003608
vt 0.394244 0.996612
vt 0.367213 0.996687
vt 0.298121 0.003432
vt 0.356953 0.003288
vt 0.359067 0.996308
vt 0.300234 0.996415
vt 0.272334 0.996473
vt 0.213502 0.996611
vt 0.211388 0.003608
vt 0.270220 0.003494
vt 0.270655 0.003494
vt 0.297686 0.003434
vt 0.299799 0.996415
vt 0.272769 0.996471
vt 0.183924 0.003649
vt 0.210954 0.003608
vt 0.213067 0.996612
vt 0.186037 0.996687
vn 0.0000 0.0000 -1.0000
vn 0.0000 -0.0000 1.0000
vn 0.0000 1.0000 0.0000
vn 0.0000 -1.0000 0.0000
vn 0.0000 -0.0004 -1.0000
usemtl F_M1_Support.001
s 1
f 24/53/24 29/54/24 30/55/24 27/56/24
f 25/57/25 31/58/25 32/59/25 21/60/25
f 21/61/26 24/62/26 27/63/26 25/64/26
f 29/65/27 32/66/27 31/67/27 30/68/27
f 33/69/28 23/70/28 28/71/28 34/72/28
f 35/73/25 26/74/25 22/75/25 36/76/25
f 36/77/26 33/78/26 34/79/26 35/80/26
f 23/81/27 22/82/27 26/83/27 28/84/27
f 37/85/24 38/86/24 39/87/24 40/88/24
f 41/89/25 42/90/25 43/91/25 44/92/25
f 44/93/26 37/94/26 40/95/26 41/96/26
f 38/97/27 43/98/27 42/99/27 39/100/27
