# Blender v2.79 (sub 0) OBJ File: ''
# www.blender.org
mtllib rock5.mtl
o Cube_Cube.001
v -0.499653 -0.074752 -0.142382
v -0.407591 -0.059835 -0.359056
v -0.351691 -0.247535 -0.312413
v -0.407591 -0.292285 -0.116776
v 0.133237 -0.038793 -0.434416
v 0.352438 0.065728 -0.348256
v 0.330320 -0.175868 -0.321082
v 0.113377 -0.279279 -0.360666
v 0.500347 -0.070560 0.100812
v 0.411741 -0.036380 0.299832
v 0.351759 -0.247272 0.274190
v 0.407587 -0.292272 0.078859
v -0.146824 -0.074802 0.394384
v -0.407591 -0.059835 0.321141
v -0.351691 -0.247535 0.274498
v -0.117231 -0.292285 0.321142
v 0.135318 -0.364145 -0.142610
v 0.400262 -0.267549 -0.119838
v -0.135631 0.433854 -0.142087
v -0.117230 0.360313 -0.359056
v -0.346856 0.312262 -0.306278
v -0.406579 0.359622 -0.115493
v -0.499653 -0.074752 0.104467
v -0.407591 -0.292285 0.078861
v -0.350224 0.306309 0.269581
v -0.396129 0.288005 0.040432
v -0.499653 0.142780 0.104467
v -0.407591 0.127864 0.321141
v -0.499653 0.142780 -0.142382
v -0.407591 0.127864 -0.359056
v -0.147918 -0.074752 -0.435874
v -0.114550 -0.241165 -0.365530
v -0.147918 0.142780 -0.435874
v 0.113985 0.365693 -0.357299
v 0.117936 0.192485 -0.419640
v 0.321244 0.366039 -0.295927
v 0.355177 0.215242 -0.330946
v 0.480758 -0.018699 -0.145965
v 0.393511 0.354947 -0.125540
v 0.480420 0.175029 -0.132171
v 0.407591 0.360313 0.078861
v 0.499653 0.142782 0.104465
v 0.352595 0.315472 0.266016
v 0.408014 0.130418 0.318914
v 0.164518 -0.075438 0.343701
v 0.118575 -0.292345 0.316749
v 0.121032 0.359935 0.285482
v 0.148488 0.142743 0.394810
v -0.116867 0.360277 0.317736
v -0.147918 0.142780 0.397959
v 0.135864 -0.365985 0.104467
v -0.135864 -0.365985 0.104467
v -0.135855 -0.365823 -0.142403
v -0.135864 0.434015 0.104468
v 0.136036 0.433996 0.102845
v 0.135864 0.434013 -0.142382
vt 0.456535 0.230860
vt 0.457451 0.338782
vt 0.357572 0.315244
vt 0.338844 0.217746
vt 0.766740 0.463001
vt 0.674238 0.517901
vt 0.683407 0.392865
vt 0.774279 0.339077
vt 0.766695 0.114771
vt 0.672449 0.144225
vt 0.674514 0.034546
vt 0.767113 0.000000
vt 0.224773 0.106021
vt 0.217789 0.000000
vt 0.315836 0.024256
vt 0.338605 0.120093
vt 0.119086 0.573606
vt 0.117079 0.680588
vt 0.016447 0.659886
vt 0.000000 0.561569
vt 0.555786 0.445752
vt 0.543727 0.339077
vt 0.641598 0.360180
vt 0.670675 0.453090
vt 0.458491 0.000000
vt 0.456913 0.107914
vt 0.339143 0.120306
vt 0.358469 0.022925
vt 0.641839 0.026243
vt 0.635306 0.140355
vt 0.568255 0.108255
vt 0.554563 0.000295
vt 0.672449 0.218130
vt 0.567878 0.231202
vt 0.643773 0.313066
vt 0.553523 0.339077
vt 0.990319 0.453798
vt 0.883613 0.444761
vt 0.868973 0.359157
vt 0.966704 0.356837
vt 0.963713 0.647428
vt 0.869032 0.671395
vt 0.883266 0.557657
vt 0.990020 0.551211
vt 0.772950 0.673847
vt 0.772509 0.583226
vt 0.685941 0.674413
vt 0.672605 0.595693
vt 1.000000 0.161394
vt 0.892089 0.127978
vt 0.866898 0.001775
vt 0.973289 0.038485
vt 0.992074 0.319465
vt 0.905485 0.322586
vt 0.896362 0.228668
vt 0.999931 0.239448
vt 0.804439 0.336588
vt 0.777110 0.225017
vt 0.710721 0.324335
vt 0.672651 0.231348
vt 0.206417 0.340580
vt 0.225959 0.236669
vt 0.338844 0.218051
vt 0.316155 0.316109
vt 0.024223 0.317591
vt 0.000748 0.221023
vt 0.112061 0.228872
vt 0.119607 0.338742
vt 0.000000 0.121382
vt 0.111811 0.105809
vt 0.028482 0.025890
vt 0.120382 0.000299
vt 0.116546 0.343640
vt 0.119061 0.450653
vt 0.000186 0.463121
vt 0.016866 0.364902
vt 0.300193 0.362151
vt 0.328475 0.460105
vt 0.228490 0.449648
vt 0.211500 0.340580
vt 0.328508 0.557487
vt 0.228508 0.572528
vt 0.300293 0.654296
vt 0.203984 0.681502
vt 0.563075 0.675527
vt 0.562982 0.568310
vt 0.672605 0.531571
vt 0.659731 0.646423
vt 0.368136 0.661738
vt 0.338844 0.569598
vt 0.450253 0.574149
vt 0.463563 0.665311
vt 0.338923 0.467697
vt 0.443260 0.452239
vt 0.363690 0.381119
vt 0.447824 0.345548
vn -0.9603 -0.1976 -0.1968
vn -0.6550 -0.1882 -0.7317
vn -0.4791 -0.6310 -0.6101
vn -0.6410 -0.7435 -0.1903
vn 0.1957 -0.1214 -0.9731
vn 0.6274 -0.0450 -0.7774
vn 0.5844 -0.4426 -0.6801
vn 0.1721 -0.6697 -0.7223
vn 0.9681 -0.1974 0.1540
vn 0.6498 -0.1812 0.7382
vn 0.5014 -0.5609 0.6587
vn 0.6729 -0.7289 0.1256
vn -0.0961 -0.1764 0.9796
vn -0.6560 -0.1818 0.7325
vn -0.5144 -0.6132 0.5995
vn -0.1001 -0.6842 0.7224
vn 0.1689 -0.9556 -0.2412
vn 0.6905 -0.6667 -0.2806
vn -0.1739 0.9768 -0.1248
vn -0.1408 0.7064 -0.6937
vn -0.5150 0.6199 -0.5921
vn -0.6458 0.7577 -0.0942
vn -0.9603 -0.1976 0.1968
vn -0.6527 -0.7390 0.1670
vn -0.5472 0.6646 0.5088
vn -0.6881 0.7039 0.1761
vn -0.9465 0.2526 0.2009
vn -0.6645 0.2205 0.7140
vn -0.9573 0.2292 -0.1761
vn -0.6575 0.1895 -0.7292
vn -0.1310 -0.1769 -0.9755
vn -0.1165 -0.6482 -0.7524
vn -0.1418 0.1762 -0.9741
vn 0.1291 0.7067 -0.6956
vn 0.1611 0.1986 -0.9667
vn 0.4816 0.6832 -0.5490
vn 0.6363 0.2218 -0.7389
vn 0.9376 -0.1357 -0.3201
vn 0.6623 0.7256 -0.1868
vn 0.9412 0.2063 -0.2673
vn 0.6535 0.7405 0.1566
vn 0.9661 0.1932 0.1711
vn 0.4921 0.6283 0.6025
vn 0.6328 0.1515 0.7593
vn 0.1610 -0.1695 0.9723
vn 0.1489 -0.6596 0.7367
vn 0.1391 0.7351 0.6636
vn 0.1557 0.1371 0.9782
vn -0.1464 0.7273 0.6705
vn -0.1104 0.1627 0.9805
vn 0.1458 -0.9779 0.1494
vn -0.1329 -0.9776 0.1632
vn -0.1278 -0.9684 -0.2142
vn -0.1978 0.9643 0.1761
vn 0.1396 0.9751 0.1725
vn 0.1185 0.9842 -0.1318
usemtl Material.003
s 1
f 1/1/1 2/2/2 3/3/3 4/4/4
f 5/5/5 6/6/6 7/7/7 8/8/8
f 9/9/9 10/10/10 11/11/11 12/12/12
f 13/13/13 14/14/14 15/15/15 16/16/16
f 17/17/17 8/18/8 7/19/7 18/20/18
f 19/21/19 20/22/20 21/23/21 22/24/22
f 14/25/14 23/26/23 24/27/24 15/28/15
f 23/26/23 1/1/1 4/4/4 24/27/24
f 25/29/25 26/30/26 27/31/27 28/32/28
f 28/32/28 27/31/27 23/26/23 14/25/14
f 26/30/26 22/33/22 29/34/29 27/31/27
f 27/31/27 29/34/29 1/1/1 23/26/23
f 22/33/22 21/35/21 30/36/30 29/34/29
f 29/34/29 30/36/30 2/2/2 1/1/1
f 2/37/2 31/38/31 32/39/32 3/40/3
f 31/38/31 5/5/5 8/8/8 32/39/32
f 21/41/21 20/42/20 33/43/33 30/44/30
f 30/44/30 33/43/33 31/38/31 2/37/2
f 20/42/20 34/45/34 35/46/35 33/43/33
f 33/43/33 35/46/35 5/5/5 31/38/31
f 34/45/34 36/47/36 37/48/37 35/46/35
f 35/46/35 37/48/37 6/6/6 5/5/5
f 6/49/6 38/50/38 18/51/18 7/52/7
f 38/50/38 9/9/9 12/12/12 18/51/18
f 36/53/36 39/54/39 40/55/40 37/56/37
f 37/56/37 40/55/40 38/50/38 6/49/6
f 39/54/39 41/57/41 42/58/42 40/55/40
f 40/55/40 42/58/42 9/9/9 38/50/38
f 41/57/41 43/59/43 44/60/44 42/58/42
f 42/58/42 44/60/44 10/10/10 9/9/9
f 10/61/10 45/62/45 46/63/46 11/64/11
f 45/62/45 13/13/13 16/16/16 46/63/46
f 43/65/43 47/66/47 48/67/48 44/68/44
f 44/68/44 48/67/48 45/62/45 10/61/10
f 47/66/47 49/69/49 50/70/50 48/67/48
f 48/67/48 50/70/50 13/13/13 45/62/45
f 49/69/49 25/71/25 28/72/28 50/70/50
f 50/70/50 28/72/28 14/14/14 13/13/13
f 46/73/46 51/74/51 12/75/12 11/76/11
f 51/74/51 17/17/17 18/20/18 12/75/12
f 15/77/15 24/78/24 52/79/52 16/80/16
f 16/80/16 52/79/52 51/74/51 46/73/46
f 24/78/24 4/81/4 53/82/53 52/79/52
f 52/79/52 53/82/53 17/17/17 51/74/51
f 4/81/4 3/83/3 32/84/32 53/82/53
f 53/82/53 32/84/32 8/18/8 17/17/17
f 49/85/49 54/86/54 26/87/26 25/88/25
f 54/86/54 19/21/19 22/24/22 26/87/26
f 43/89/43 41/90/41 55/91/55 47/92/47
f 47/92/47 55/91/55 54/86/54 49/85/49
f 41/90/41 39/93/39 56/94/56 55/91/55
f 55/91/55 56/94/56 19/21/19 54/86/54
f 39/93/39 36/95/36 34/96/34 56/94/56
f 56/94/56 34/96/34 20/22/20 19/21/19
