# Blender v2.79 (sub 0) OBJ File: ''
# www.blender.org
mtllib rock1.mtl
o Icosphere.001
v 0.024424 -0.343080 -0.015604
v 0.237036 -0.377632 0.161360
v -0.061359 -0.312736 0.217336
v 0.384921 -0.245116 0.294680
v 0.451748 -0.274457 0.009139
v -0.243461 -0.321279 -0.003595
v -0.070367 -0.344742 -0.238490
v 0.238141 -0.343203 -0.162947
v 0.499354 -0.009367 0.174480
v -0.119504 -0.192655 0.382551
v 0.138600 -0.244270 0.388537
v 0.016586 -0.014164 0.449310
v -0.474227 -0.242252 0.010840
v -0.358997 -0.274802 0.272532
v -0.494391 -0.018541 0.170901
v -0.135084 -0.200476 -0.380830
v -0.359900 -0.280215 -0.252988
v -0.291733 -0.014761 -0.398807
v 0.387531 -0.145343 -0.251947
v 0.128915 -0.192997 -0.342527
v 0.281103 0.081784 -0.380502
v 0.275278 -0.016579 0.357878
v -0.257528 -0.029163 0.375758
v -0.500647 -0.015622 -0.149250
v -0.002668 0.017981 -0.450690
v 0.464273 0.059161 -0.147132
v 0.143955 0.206436 0.394083
v 0.346239 0.253707 0.225299
v 0.087624 0.418154 0.259567
v -0.333034 0.181548 0.242725
v -0.111169 0.234459 0.398276
v -0.214664 0.393861 0.168362
v -0.368678 0.201346 -0.262537
v -0.445912 0.237401 0.005236
v -0.193472 0.330452 -0.143316
v 0.127689 0.215619 -0.373948
v -0.122077 0.198760 -0.366541
v 0.094638 0.319631 -0.203963
v 0.433085 0.248556 -0.012083
v 0.346237 0.293675 -0.238191
v 0.282949 0.385565 -0.012509
v 0.030863 0.422368 0.005843
vt 0.573889 0.240299
vt 0.516462 0.364522
vt 0.452699 0.225238
vt 0.465378 0.444680
vt 0.609159 0.444428
vt 0.536173 0.112488
vt 0.668167 0.168770
vt 0.668330 0.325220
vt 0.710921 0.444680
vt 0.840293 0.457786
vt 0.729457 0.573059
vt 0.320549 0.157507
vt 0.363086 0.280708
vt 0.261443 0.223450
vt 0.921714 0.135623
vt 0.998804 0.241134
vt 0.850727 0.255318
vt 0.606254 0.705944
vt 0.664972 0.811772
vt 0.514898 0.787042
vt 0.580523 0.444680
vt 0.600592 0.574443
vt 0.455463 0.505049
vt 0.360860 0.408793
vt 0.235361 0.482851
vt 0.261281 0.357278
vt 0.234531 0.096367
vt 0.782553 0.114937
vt 0.486373 0.646344
vt 0.954223 0.550516
vt 1.000000 0.679753
vt 0.875244 0.640980
vt 0.157199 0.297471
vt 0.114379 0.412447
vt 0.028193 0.289056
vt 0.104990 0.078468
vt 0.127821 0.174038
vt 0.000000 0.149564
vt 0.201248 0.836679
vt 0.068385 0.842228
vt 0.149939 0.726058
vt 0.316811 0.612931
vt 0.281414 0.731498
vt 0.218998 0.598307
vt 0.794794 0.722890
vt 0.903933 0.770326
vt 0.795222 0.794662
vt 0.392370 0.337824
vt 0.363086 0.211155
vt 0.949610 0.445029
vt 0.390479 0.087507
vt 0.499323 0.000000
vt 0.692243 0.667166
vt 0.638725 0.025445
vt 0.692523 0.512429
vt 0.171273 0.000000
vt 0.914236 0.337575
vt 0.319367 0.048335
vt 0.744625 0.000000
vt 0.668330 0.108933
vt 0.892225 0.008256
vt 0.392637 0.582920
vt 0.692523 0.702948
vt 0.702041 0.236722
vt 0.784659 0.326554
vt 0.407559 0.705829
vt 0.312580 0.842193
vt 0.363086 0.472086
vt 0.000000 0.543790
vt 0.150817 0.482851
vt 0.099982 0.594397
vt 0.000337 0.407321
vt 0.073680 0.475780
vt 0.000894 0.697496
vt 0.679723 0.337033
vt 0.274471 0.487100
vn -0.0844 -0.9963 0.0167
vn 0.1627 -0.9638 0.2111
vn -0.1128 -0.9388 0.3254
vn 0.6211 -0.4610 0.6337
vn 0.7989 -0.5933 -0.0984
vn -0.1961 -0.9799 0.0354
vn -0.0231 -0.9179 -0.3962
vn 0.2810 -0.8718 -0.4013
vn 0.9308 0.0735 0.3582
vn -0.1791 -0.5026 0.8457
vn 0.1092 -0.5488 0.8288
vn 0.0230 -0.0357 0.9991
vn -0.7950 -0.6065 0.0104
vn -0.4993 -0.6633 0.5574
vn -0.9029 0.0701 0.4241
vn -0.0863 -0.4980 -0.8628
vn -0.5423 -0.6831 -0.4892
vn -0.4732 0.0071 -0.8809
vn 0.6866 -0.3519 -0.6362
vn 0.2494 -0.5073 -0.8249
vn 0.4942 0.0716 -0.8664
vn 0.4877 0.0685 0.8703
vn -0.4724 0.0128 0.8813
vn -0.9435 0.0198 -0.3308
vn 0.0385 0.0017 -0.9992
vn 0.9348 0.0853 -0.3446
vn 0.3161 0.3457 0.8835
vn 0.6654 0.5263 0.5293
vn 0.1510 0.8704 0.4685
vn -0.6644 0.4172 0.6201
vn -0.2745 0.4309 0.8596
vn -0.4344 0.8624 0.2598
vn -0.6012 0.5644 -0.5656
vn -0.7957 0.6051 0.0255
vn -0.2638 0.8891 -0.3741
vn 0.0927 0.5975 -0.7965
vn -0.1756 0.6083 -0.7740
vn -0.0069 0.8820 -0.4712
vn 0.8552 0.5181 0.0135
vn 0.5431 0.6608 -0.5180
vn 0.4100 0.9098 -0.0634
vn -0.0248 0.9777 -0.2085
usemtl Material.005
s 1
f 1/1/1 2/2/2 3/3/3
f 4/4/4 2/2/2 5/5/5
f 1/1/1 3/3/3 6/6/6
f 1/1/1 6/6/6 7/7/7
f 1/1/1 7/7/7 8/8/8
f 4/9/4 5/10/5 9/11/9
f 10/12/10 11/13/11 12/14/12
f 13/15/13 14/16/14 15/17/15
f 16/18/16 17/19/17 18/20/18
f 19/21/19 20/22/20 21/23/21
f 4/24/4 9/25/9 22/26/22
f 10/12/10 12/14/12 23/27/23
f 13/15/13 15/17/15 24/28/24
f 16/18/16 18/20/18 25/29/25
f 19/30/19 21/31/21 26/32/26
f 27/33/27 28/34/28 29/35/29
f 30/36/30 31/37/31 32/38/32
f 33/39/33 34/40/34 35/41/35
f 36/42/36 37/43/37 38/44/38
f 39/45/39 40/46/40 41/47/41
f 3/3/3 11/48/11 10/49/10
f 3/3/3 2/2/2 11/48/11
f 2/2/2 4/4/4 11/48/11
f 5/10/5 8/50/8 19/30/19
f 5/5/5 2/2/2 8/8/8
f 2/2/2 1/1/1 8/8/8
f 6/6/6 14/51/14 13/52/13
f 6/6/6 3/3/3 14/51/14
f 3/3/3 10/49/10 14/51/14
f 7/53/7 17/19/17 16/18/16
f 7/7/7 6/6/6 17/54/17
f 6/6/6 13/52/13 17/54/17
f 8/55/8 20/22/20 19/21/19
f 8/55/8 7/53/7 20/22/20
f 7/53/7 16/18/16 20/22/20
f 9/11/9 26/32/26 39/45/39
f 9/11/9 5/10/5 26/32/26
f 5/10/5 19/30/19 26/32/26
f 12/14/12 22/26/22 27/33/27
f 12/14/12 11/13/11 22/26/22
f 11/13/11 4/24/4 22/26/22
f 15/56/15 23/27/23 30/36/30
f 15/17/15 14/16/14 23/57/23
f 14/58/14 10/12/10 23/27/23
f 18/59/18 24/28/24 33/60/33
f 18/59/18 17/61/17 24/28/24
f 17/61/17 13/15/13 24/28/24
f 21/23/21 25/29/25 36/62/36
f 21/23/21 20/22/20 25/29/25
f 20/22/20 16/18/16 25/29/25
f 22/26/22 28/34/28 27/33/27
f 22/26/22 9/25/9 28/34/28
f 9/11/9 39/45/39 28/63/28
f 23/27/23 31/37/31 30/36/30
f 23/27/23 12/14/12 31/37/31
f 12/14/12 27/33/27 31/37/31
f 24/28/24 34/64/34 33/60/33
f 24/28/24 15/17/15 34/64/34
f 15/17/15 30/65/30 34/64/34
f 25/29/25 37/66/37 36/62/36
f 25/29/25 18/20/18 37/66/37
f 18/67/18 33/39/33 37/43/37
f 26/32/26 40/46/40 39/45/39
f 26/32/26 21/31/21 40/46/40
f 21/23/21 36/62/36 40/68/40
f 29/69/29 41/70/41 42/71/42
f 29/35/29 28/34/28 41/72/41
f 28/34/28 39/73/39 41/72/41
f 32/74/32 29/69/29 42/71/42
f 32/38/32 31/37/31 29/35/29
f 31/37/31 27/33/27 29/35/29
f 35/41/35 32/74/32 42/71/42
f 35/41/35 34/40/34 32/74/32
f 34/64/34 30/65/30 32/75/32
f 38/44/38 35/41/35 42/71/42
f 38/44/38 37/43/37 35/41/35
f 37/43/37 33/39/33 35/41/35
f 41/70/41 38/44/38 42/71/42
f 41/70/41 40/76/40 38/44/38
f 40/76/40 36/42/36 38/44/38
