# Blender v2.79 (sub 0) OBJ File: 'Gnoming Missile.blend'
# www.blender.org
mtllib Gnoming Missile.mtl
o ShapeIndexedFaceS.004
v 0.044704 2.010547 -1.270261
v -0.431038 1.526914 0.866504
v 0.034839 1.817850 0.878946
v -0.538176 1.657303 -1.168902
v -0.431038 1.003093 0.847945
v -0.538975 1.010892 -1.016991
v 0.034839 0.770208 0.841828
v 0.042838 0.715661 -0.908240
v 0.500717 1.002941 0.852208
v 0.625718 1.010703 -1.011661
v 0.500717 1.526763 0.870767
v 0.626518 1.657115 -1.163573
v 0.155841 1.154456 -0.134635
v -0.075764 0.582780 -0.447312
v -0.077097 1.154494 -0.135701
v 0.157174 0.582742 -0.446247
v 0.393046 1.245612 -1.062677
v 0.218875 0.027514 -1.223177
v 0.220475 0.214493 -1.566179
v 0.390379 0.933981 -0.491006
v -0.130532 0.027571 -1.224776
v -0.308437 0.934094 -0.494203
v -0.128933 0.214550 -1.567778
v -0.305770 1.245725 -1.065874
v 0.035105 1.296091 0.802189
v 0.035105 2.518341 0.845493
v 0.908625 2.168985 0.837117
v 0.908625 0.422914 0.775254
v 1.258034 1.295893 0.807784
v -0.838414 0.423197 0.767260
v 0.035105 0.015639 0.756823
v -0.838414 2.169268 0.829123
v -1.187821 1.296289 0.796593
v -0.072565 0.549321 -1.147752
v -0.076831 0.341723 -0.222768
v 0.156107 0.341685 -0.221702
v 0.160374 0.549283 -1.146686
vt 0.058594 0.937500
vt 1.562500 0.750000
vt 1.562500 0.937500
vt 0.058594 0.750000
vt 1.562500 0.250000
vt 0.058594 0.250000
vt 1.562500 0.058594
vt 0.058594 0.058594
vt 1.562500 0.250000
vt 0.058594 0.250000
vt 1.562500 0.750000
vt 0.058594 0.750000
vt 0.562500 0.312500
vt 0.375000 0.312500
vt 0.562500 0.125000
vt 0.500000 0.058594
vt 0.375000 0.125000
vt 0.500000 0.437500
vt 0.625000 0.875000
vt 0.375000 0.062500
vt 0.375000 0.875000
vt 0.625000 0.062500
vt 0.058594 0.687500
vt 0.941406 0.250000
vt 0.941406 0.687500
vt 0.058594 0.250000
vt 0.941406 0.062500
vt 0.058594 0.062500
vt 0.058594 0.058594
vt 0.941406 0.937500
vt 0.941406 0.058594
vt 0.058594 0.937500
vt 0.941406 0.937500
vt 0.058594 0.937500
vt 0.058594 0.062500
vt 0.058594 0.062500
vt 0.058594 0.937500
vt 0.058594 0.062500
vt 0.058594 0.937500
vt 0.058594 0.062500
vt 0.058594 0.937500
vt 0.058594 0.058594
vt 0.937500 0.058594
vt 0.687500 0.250000
vt 0.750000 0.937500
vt 0.941406 0.625000
vt 0.750000 0.875000
vt 0.937500 0.058594
vt 0.687500 0.250000
vt 0.375000 0.062500
vt 0.625000 0.875000
vt 0.625000 0.062500
vt 0.058594 0.625000
vt 0.375000 0.875000
vt 0.437500 0.062500
vt 0.625000 0.937500
vt 0.625000 0.062500
vt 0.437500 0.937500
vt 0.625000 0.375000
vt 0.437500 0.062500
vt 0.437500 0.375000
vt 0.625000 0.062500
vt 0.941406 0.500000
vt 0.058594 0.500000
vt 0.500000 0.058594
vt 0.058594 0.058594
vt 0.500000 0.941406
vt 0.437500 0.500000
vt 0.562500 0.250000
vt 0.562500 0.500000
vt 0.437500 0.250000
vn 0.0016 0.7218 -0.6921
vn -0.8716 0.4848 0.0729
vn -0.0030 0.9956 0.0933
vn -0.7132 0.3220 -0.6226
vn -0.8488 -0.5268 0.0444
vn -0.6861 -0.4920 -0.5358
vn -0.0015 -0.9995 0.0295
vn 0.0056 -0.8779 -0.4788
vn 0.8476 -0.5275 0.0563
vn 0.6794 -0.4886 -0.5474
vn 0.8712 0.4831 0.0872
vn 0.7186 0.3133 -0.6208
vn 0.5384 0.8036 0.2536
vn -0.8342 0.4657 -0.2955
vn -0.5405 0.8037 0.2487
vn 0.8370 0.4654 -0.2879
vn 0.6215 0.7397 -0.2579
vn 0.5342 -0.8328 0.1449
vn 0.5333 -0.2781 -0.7989
vn 0.6075 0.1339 0.7829
vn -0.5358 -0.8326 0.1400
vn -0.6146 0.1341 0.7773
vn -0.5261 -0.2780 -0.8037
vn -0.6189 0.7399 -0.2636
vn 0.0046 0.0354 -0.9994
vn -0.5343 0.0729 -0.8421
vn -0.5739 -0.6669 0.4752
vn 0.5693 -0.6671 0.4805
vn 0.5420 0.0727 -0.8372
usemtl Material.053_Gun(Hand
s 1
f 1/1/1 2/2/2 3/3/3
f 2/2/2 1/1/1 4/4/4
f 4/4/4 5/5/5 2/2/2
f 5/5/5 4/4/4 6/6/6
f 6/6/6 7/7/7 5/5/5
f 7/7/7 6/6/6 8/8/8
f 8/8/8 9/9/9 7/7/7
f 9/9/9 8/8/8 10/10/10
f 10/10/10 11/11/11 9/9/9
f 11/11/11 10/10/10 12/12/12
f 4/13/4 12/14/12 6/15/6
f 12/12/12 1/1/1 3/3/3
f 12/12/12 3/3/3 11/11/11
f 12/14/12 8/16/8 6/15/6
f 8/16/8 12/14/12 10/17/10
f 4/13/4 1/18/1 12/14/12
f 13/19/13 14/20/14 15/21/15
f 14/20/14 13/19/13 16/22/16
f 17/23/17 18/24/18 19/25/19
f 18/24/18 17/23/17 20/26/20
f 20/26/20 21/27/21 18/24/18
f 21/27/21 20/26/20 22/28/22
f 22/29/22 23/30/23 21/31/21
f 23/30/23 22/29/22 24/32/24
f 25/33/25 26/34/25 27/35/25
f 28/36/25 25/33/25 29/37/25
f 29/37/25 25/33/25 27/35/25
f 30/38/25 25/33/25 31/39/25
f 31/39/25 25/33/25 28/36/25
f 32/40/25 25/33/25 33/41/25
f 33/41/25 25/33/25 30/38/25
f 26/34/25 25/33/25 32/40/25
f 34/42/26 35/43/27 14/44/14
f 15/45/15 14/44/14 35/43/27
f 24/32/24 19/46/19 23/30/23
f 13/47/13 36/48/28 16/49/16
f 16/50/16 34/51/26 14/52/14
f 19/46/19 24/32/24 17/53/17
f 34/51/26 16/50/16 37/54/29
f 36/55/28 15/56/15 35/57/27
f 15/56/15 36/55/28 13/58/13
f 37/59/29 35/60/27 34/61/26
f 35/60/27 37/59/29 36/62/28
f 20/63/20 24/64/24 22/65/22
f 36/48/28 37/66/29 16/49/16
f 24/64/24 20/63/20 17/67/17
f 19/68/19 21/69/21 23/70/23
f 21/69/21 19/68/19 18/71/18
o ShapeIndexedFaceS.002
v 0.030307 1.258976 1.849755
v 0.438483 1.670450 1.749659
v 0.030840 1.786921 1.751919
v -0.376803 1.670582 1.745929
v -0.551506 1.263194 1.730694
v 0.438483 0.855617 1.720790
v 0.613187 1.263005 1.736024
v -0.376803 0.855749 1.717059
v 0.030840 0.681076 1.712739
vt 0.437500 0.500000
vt 0.125000 0.812500
vt 0.437500 0.941406
vt 0.812500 0.812500
vt 0.937500 0.500000
vt 0.125000 0.125000
vt 0.058594 0.500000
vt 0.812500 0.125000
vt 0.437500 0.058594
vn -0.0046 -0.0301 0.9995
vn 0.1284 0.1123 0.9853
vn -0.0045 0.1822 0.9832
vn -0.1373 0.1124 0.9841
vn -0.2006 -0.0347 0.9790
vn 0.1355 -0.1747 0.9752
vn 0.1916 -0.0347 0.9808
vn -0.1445 -0.1746 0.9740
vn -0.0045 -0.2307 0.9730
usemtl Material.054_Gun(Tip)
s 1
f 38/72/30 39/73/31 40/74/32
f 38/72/30 41/75/33 42/76/34
f 38/72/30 43/77/35 44/78/36
f 39/73/31 38/72/30 44/78/36
f 38/72/30 45/79/37 46/80/38
f 38/72/30 46/80/38 43/77/35
f 38/72/30 42/76/34 45/79/37
f 38/72/30 40/74/32 41/75/33
o ShapeIndexedFaceS
v 0.731522 0.578992 1.304425
v 0.035105 0.015639 0.756823
v 0.908625 0.422914 0.775254
v 0.030840 1.786921 1.751919
v 0.731522 1.975848 1.353915
v 0.032706 2.266973 1.361028
v 0.032706 0.288093 1.290916
v -0.666110 1.976075 1.347520
v -0.551506 1.263194 1.730694
v -0.376803 1.670582 1.745929
v 0.438483 1.670450 1.749659
v -0.838414 0.423197 0.767260
v -0.666110 0.579218 1.298030
v 1.022696 1.277373 1.330502
v 0.613187 1.263005 1.736024
v 0.438483 0.855617 1.720790
v 0.030840 0.681076 1.712739
v -0.376803 0.855749 1.717059
v -0.957283 1.277694 1.321442
v 0.035105 2.518341 0.845493
v -0.838414 2.169268 0.829123
v -1.187821 1.296289 0.796593
v 1.258034 1.295893 0.807784
v 0.908625 2.168985 0.837117
vt 0.062500 0.375000
vt 1.500000 -0.125000
vt 0.058594 0.058594
vt 0.187500 3.000000
vt -0.875000 2.750000
vt -0.062500 3.750000
vt 1.312500 0.250000
vt 1.062500 3.750000
vt 1.187500 2.375000
vt 0.812500 2.875000
vt -0.125000 2.375000
vt 2.500000 1.250000
vt 2.125000 1.437500
vt -0.750000 1.375000
vt -0.125000 1.687500
vt 0.312500 1.125000
vt 0.941406 1.125000
vt 1.250000 1.875000
vt 1.941406 2.812500
vt -0.375000 4.500000
vt 1.437500 4.437500
vt 2.312500 3.000000
vt -1.625000 1.062500
vt -1.375000 2.875000
vn 0.5876 -0.5987 0.5443
vn -0.0110 -0.8957 0.4445
vn 0.6528 -0.6412 0.4034
vn 0.0256 0.6480 0.7612
vn 0.5800 0.5658 0.5859
vn -0.0002 0.8047 0.5937
vn -0.0105 -0.8332 0.5528
vn -0.5879 0.5702 0.5737
vn -0.7089 -0.0278 0.7048
vn -0.4732 0.4748 0.7420
vn 0.4563 0.5104 0.7288
vn -0.6477 -0.6415 0.4111
vn -0.5927 -0.6046 0.5321
vn 0.8337 -0.0162 0.5519
vn 0.7024 -0.0223 0.7114
vn 0.4932 -0.5253 0.6933
vn -0.0004 -0.7302 0.6831
vn -0.5037 -0.5212 0.6889
vn -0.8387 -0.0226 0.5441
vn -0.0052 0.8971 0.4417
vn -0.6404 0.6278 0.4425
vn -0.9141 -0.0177 0.4051
vn 0.9103 -0.0113 0.4137
vn 0.6411 0.6229 0.4482
usemtl Material.052_Gun(Fron
s 1
f 47/81/39 48/82/40 49/83/41
f 50/84/42 51/85/43 52/86/44
f 48/82/40 47/81/39 53/87/45
f 54/88/46 55/89/47 56/90/48
f 50/84/42 57/91/49 51/85/43
f 58/92/50 53/87/45 59/93/51
f 57/91/49 60/94/52 51/85/43
f 60/94/52 57/91/49 61/95/53
f 61/95/53 47/81/39 60/94/52
f 47/81/39 61/95/53 62/96/54
f 53/87/45 47/81/39 62/96/54
f 53/87/45 62/96/54 63/97/55
f 63/97/55 59/93/51 53/87/45
f 59/93/51 63/97/55 64/98/56
f 64/98/56 65/99/57 59/93/51
f 65/99/57 64/98/56 55/89/47
f 66/100/58 54/88/46 52/86/44
f 54/88/46 66/100/58 67/101/59
f 67/101/59 65/99/57 54/88/46
f 65/99/57 67/101/59 68/102/60
f 68/102/60 59/93/51 65/99/57
f 59/93/51 68/102/60 58/92/50
f 53/87/45 58/92/50 48/82/40
f 51/85/43 69/103/61 70/104/62
f 52/86/44 56/90/48 50/84/42
f 60/94/52 49/83/41 69/103/61
f 55/89/47 54/88/46 65/99/57
f 69/103/61 51/85/43 60/94/52
f 60/94/52 47/81/39 49/83/41
f 70/104/62 52/86/44 51/85/43
f 52/86/44 70/104/62 66/100/58
f 56/90/48 52/86/44 54/88/46
