# Blender v2.79 (sub 0) OBJ File: ''
# www.blender.org
mtllib mushroom_gun.mtl
o gun_tip
v -0.012121 0.503522 -0.739802
v -0.175369 0.668089 -0.699769
v -0.012334 0.714672 -0.700673
v 0.150701 0.668142 -0.698277
v 0.220573 0.505209 -0.692184
v -0.175369 0.342200 -0.688223
v -0.245241 0.505134 -0.694316
v 0.150701 0.342253 -0.686731
v -0.012334 0.272393 -0.685003
vt 0.437500 0.500000
vt 0.125000 0.812500
vt 0.437500 0.941406
vt 0.812500 0.812500
vt 0.937500 0.500000
vt 0.125000 0.125000
vt 0.058594 0.500000
vt 0.812500 0.125000
vt 0.437500 0.058594
vn 0.0046 -0.0301 -0.9995
vn -0.1284 0.1124 -0.9853
vn 0.0045 0.1822 -0.9832
vn 0.1373 0.1124 -0.9841
vn 0.2006 -0.0347 -0.9791
vn -0.1355 -0.1747 -0.9753
vn -0.1916 -0.0348 -0.9809
vn 0.1445 -0.1746 -0.9740
vn 0.0045 -0.2307 -0.9730
usemtl gun_tip
s 1
f 1/1/1 2/2/2 3/3/3
f 1/1/1 4/4/4 5/5/5
f 1/1/1 6/6/6 7/7/7
f 2/2/2 1/1/1 7/7/7
f 1/1/1 8/8/8 9/9/9
f 1/1/1 9/9/9 6/6/6
f 1/1/1 5/5/5 8/8/8
f 1/1/1 3/3/3 4/4/4
o gun_front
v -0.292569 0.231565 -0.521699
v -0.014040 0.006255 -0.302688
v -0.363401 0.169143 -0.310060
v -0.012334 0.714672 -0.700673
v -0.292569 0.790232 -0.541493
v -0.013080 0.906666 -0.544338
v -0.013080 0.115222 -0.516297
v 0.266408 0.790323 -0.538935
v 0.220573 0.505209 -0.692184
v 0.150701 0.668142 -0.698277
v -0.175369 0.668089 -0.699769
v 0.335320 0.169256 -0.306862
v 0.266408 0.231656 -0.519142
v -0.409023 0.510880 -0.532129
v -0.245241 0.505134 -0.694316
v -0.175369 0.342200 -0.688223
v -0.012334 0.272393 -0.685003
v 0.150701 0.342253 -0.686731
v 0.382862 0.511008 -0.528505
v -0.014040 1.007200 -0.338152
v 0.335320 0.867590 -0.331604
v 0.475064 0.518445 -0.318594
v -0.503145 0.518287 -0.323070
v -0.363401 0.867476 -0.334802
vt 0.062500 0.375000
vt 1.500000 -0.125000
vt 0.058594 0.058594
vt 0.187500 3.000000
vt -0.875000 2.750000
vt -0.062500 3.750000
vt 1.312500 0.250000
vt 1.062500 3.750000
vt 1.187500 2.375000
vt 0.812500 2.875000
vt -0.125000 2.375000
vt 2.500000 1.250000
vt 2.125000 1.437500
vt -0.750000 1.375000
vt -0.125000 1.687500
vt 0.312500 1.125000
vt 0.941406 1.125000
vt 1.250000 1.875000
vt 1.941406 2.812500
vt -0.375000 4.500000
vt 1.437500 4.437500
vt 2.312500 3.000000
vt -1.625000 1.062500
vt -1.375000 2.875000
vn -0.5876 -0.5987 -0.5443
vn 0.0110 -0.8957 -0.4445
vn -0.6528 -0.6412 -0.4034
vn -0.0256 0.6480 -0.7612
vn -0.5800 0.5659 -0.5859
vn 0.0002 0.8047 -0.5937
vn 0.0106 -0.8333 -0.5528
vn 0.5880 0.5702 -0.5737
vn 0.7089 -0.0278 -0.7048
vn 0.4732 0.4749 -0.7420
vn -0.4564 0.5104 -0.7288
vn 0.6477 -0.6415 -0.4111
vn 0.5927 -0.6046 -0.5321
vn -0.8337 -0.0162 -0.5520
vn -0.7024 -0.0223 -0.7114
vn -0.4933 -0.5253 -0.6933
vn 0.0004 -0.7303 -0.6832
vn 0.5037 -0.5212 -0.6889
vn 0.8387 -0.0227 -0.5441
vn 0.0052 0.8971 -0.4417
vn 0.6404 0.6278 -0.4425
vn 0.9141 -0.0177 -0.4051
vn -0.9103 -0.0113 -0.4137
vn -0.6411 0.6230 -0.4482
usemtl gun_front
s 1
f 10/10/10 11/11/11 12/12/12
f 13/13/13 14/14/14 15/15/15
f 11/11/11 10/10/10 16/16/16
f 17/17/17 18/18/18 19/19/19
f 13/13/13 20/20/20 14/14/14
f 21/21/21 16/16/16 22/22/22
f 20/20/20 23/23/23 14/14/14
f 23/23/23 20/20/20 24/24/24
f 24/24/24 10/10/10 23/23/23
f 10/10/10 24/24/24 25/25/25
f 16/16/16 10/10/10 25/25/25
f 16/16/16 25/25/25 26/26/26
f 26/26/26 22/22/22 16/16/16
f 22/22/22 26/26/26 27/27/27
f 27/27/27 28/28/28 22/22/22
f 28/28/28 27/27/27 18/18/18
f 29/29/29 17/17/17 15/15/15
f 17/17/17 29/29/29 30/30/30
f 30/30/30 28/28/28 17/17/17
f 28/28/28 30/30/30 31/31/31
f 31/31/31 22/22/22 28/28/28
f 22/22/22 31/31/31 21/21/21
f 16/16/16 21/21/21 11/11/11
f 14/14/14 32/32/32 33/33/33
f 15/15/15 19/19/19 13/13/13
f 23/23/23 12/12/12 32/32/32
f 18/18/18 17/17/17 28/28/28
f 32/32/32 14/14/14 23/23/23
f 23/23/23 10/10/10 12/12/12
f 33/33/33 15/15/15 14/14/14
f 15/15/15 33/33/33 29/29/29
f 19/19/19 15/15/15 17/17/17
o gun_handle
v -0.017879 0.804110 0.508036
v 0.172392 0.610683 -0.346555
v -0.013934 0.727041 -0.351531
v 0.215241 0.662832 0.467497
v 0.172392 0.401183 -0.339132
v 0.215561 0.404302 0.406741
v -0.013934 0.308041 -0.336686
v -0.017133 0.286226 0.363247
v -0.200260 0.401122 -0.340837
v -0.250253 0.404227 0.404610
v -0.200260 0.610622 -0.348260
v -0.250573 0.662756 0.465366
v -0.062328 0.461720 0.053847
v 0.030301 0.233080 0.178901
v 0.030835 0.461735 0.054273
v -0.062861 0.233065 0.178475
v -0.157197 0.498177 0.425013
v -0.087538 0.011004 0.489205
v -0.088178 0.085786 0.626387
v -0.156131 0.373542 0.196376
v 0.052206 0.011027 0.489844
v 0.123358 0.373587 0.197654
v 0.051566 0.085808 0.627026
v 0.122291 0.498223 0.426292
v -0.014040 0.518366 -0.320832
v -0.014040 1.007200 -0.338152
v -0.363401 0.867476 -0.334802
v -0.363401 0.169143 -0.310060
v -0.503145 0.518287 -0.323070
v 0.335320 0.169256 -0.306862
v -0.014040 0.006255 -0.302688
v 0.335320 0.867590 -0.331604
v 0.475064 0.518445 -0.318594
v 0.029022 0.219699 0.459039
v 0.030728 0.136671 0.089095
v -0.062434 0.136656 0.088669
v -0.064141 0.219684 0.458612
vt 0.058594 0.937500
vt 1.562500 0.750000
vt 1.562500 0.937500
vt 0.058594 0.750000
vt 1.562500 0.250000
vt 0.058594 0.250000
vt 1.562500 0.058594
vt 0.058594 0.058594
vt 1.562500 0.250000
vt 0.058594 0.250000
vt 1.562500 0.750000
vt 0.058594 0.750000
vt 0.562500 0.312500
vt 0.375000 0.312500
vt 0.562500 0.125000
vt 0.500000 0.058594
vt 0.375000 0.125000
vt 0.500000 0.437500
vt 0.625000 0.875000
vt 0.375000 0.062500
vt 0.375000 0.875000
vt 0.625000 0.062500
vt 0.058594 0.687500
vt 0.941406 0.250000
vt 0.941406 0.687500
vt 0.058594 0.250000
vt 0.941406 0.062500
vt 0.058594 0.062500
vt 0.058594 0.058594
vt 0.941406 0.937500
vt 0.941406 0.058594
vt 0.058594 0.937500
vt 0.941406 0.937500
vt 0.058594 0.937500
vt 0.058594 0.062500
vt 0.058594 0.062500
vt 0.058594 0.937500
vt 0.058594 0.062500
vt 0.058594 0.937500
vt 0.058594 0.062500
vt 0.058594 0.937500
vt 0.058594 0.058594
vt 0.937500 0.058594
vt 0.687500 0.250000
vt 0.750000 0.937500
vt 0.941406 0.625000
vt 0.750000 0.875000
vt 0.937500 0.058594
vt 0.687500 0.250000
vt 0.375000 0.062500
vt 0.625000 0.875000
vt 0.625000 0.062500
vt 0.058594 0.625000
vt 0.375000 0.875000
vt 0.437500 0.062500
vt 0.625000 0.937500
vt 0.625000 0.062500
vt 0.437500 0.937500
vt 0.625000 0.375000
vt 0.437500 0.062500
vt 0.437500 0.375000
vt 0.625000 0.062500
vt 0.941406 0.500000
vt 0.058594 0.500000
vt 0.500000 0.058594
vt 0.058594 0.058594
vt 0.500000 0.941406
vt 0.437500 0.500000
vt 0.562500 0.250000
vt 0.562500 0.500000
vt 0.437500 0.250000
vn -0.0016 0.7218 0.6921
vn 0.8716 0.4848 -0.0729
vn 0.0030 0.9956 -0.0933
vn 0.7132 0.3220 0.6227
vn 0.8488 -0.5268 -0.0444
vn 0.6861 -0.4920 0.5358
vn 0.0015 -0.9996 -0.0295
vn -0.0056 -0.8779 0.4788
vn -0.8476 -0.5276 -0.0564
vn -0.6794 -0.4886 0.5474
vn -0.8712 0.4831 -0.0873
vn -0.7186 0.3133 0.6208
vn -0.5385 0.8036 -0.2536
vn 0.8342 0.4657 0.2955
vn 0.5405 0.8038 -0.2487
vn -0.8370 0.4654 0.2879
vn -0.6215 0.7397 0.2580
vn -0.5342 -0.8328 -0.1450
vn -0.5333 -0.2781 0.7989
vn -0.6075 0.1339 -0.7829
vn 0.5358 -0.8326 -0.1401
vn 0.6146 0.1341 -0.7773
vn 0.5261 -0.2780 0.8037
vn 0.6189 0.7399 0.2636
vn -0.0046 0.0354 0.9994
vn 0.5343 0.0729 0.8421
vn 0.5739 -0.6669 -0.4752
vn -0.5693 -0.6671 -0.4805
vn -0.5420 0.0727 0.8372
usemtl gun_handle
s 1
f 34/34/34 35/35/35 36/36/36
f 35/35/35 34/34/34 37/37/37
f 37/37/37 38/38/38 35/35/35
f 38/38/38 37/37/37 39/39/39
f 39/39/39 40/40/40 38/38/38
f 40/40/40 39/39/39 41/41/41
f 41/41/41 42/42/42 40/40/40
f 42/42/42 41/41/41 43/43/43
f 43/43/43 44/44/44 42/42/42
f 44/44/44 43/43/43 45/45/45
f 37/46/37 45/47/45 39/48/39
f 45/45/45 34/34/34 36/36/36
f 45/45/45 36/36/36 44/44/44
f 45/47/45 41/49/41 39/48/39
f 41/49/41 45/47/45 43/50/43
f 37/46/37 34/51/34 45/47/45
f 46/52/46 47/53/47 48/54/48
f 47/53/47 46/52/46 49/55/49
f 50/56/50 51/57/51 52/58/52
f 51/57/51 50/56/50 53/59/53
f 53/59/53 54/60/54 51/57/51
f 54/60/54 53/59/53 55/61/55
f 55/62/55 56/63/56 54/64/54
f 56/63/56 55/62/55 57/65/57
f 58/66/58 59/67/58 60/68/58
f 61/69/58 58/66/58 62/70/58
f 62/70/58 58/66/58 60/68/58
f 63/71/58 58/66/58 64/72/58
f 64/72/58 58/66/58 61/69/58
f 65/73/58 58/66/58 66/74/58
f 66/74/58 58/66/58 63/71/58
f 59/67/58 58/66/58 65/73/58
f 67/75/59 68/76/60 47/77/47
f 48/78/48 47/77/47 68/76/60
f 57/65/57 52/79/52 56/63/56
f 46/80/46 69/81/61 49/82/49
f 49/83/49 67/84/59 47/85/47
f 52/79/52 57/65/57 50/86/50
f 67/84/59 49/83/49 70/87/62
f 69/88/61 48/89/48 68/90/60
f 48/89/48 69/88/61 46/91/46
f 70/92/62 68/93/60 67/94/59
f 68/93/60 70/92/62 69/95/61
f 53/96/53 57/97/57 55/98/55
f 69/81/61 70/99/62 49/82/49
f 57/97/57 53/96/53 50/100/50
f 52/101/52 54/102/54 56/103/56
f 54/102/54 52/101/52 51/104/51
